# xmcd CD Database Entry
#
# Track frame offsets:
# 150
# 17288
# 39169
# 58927
# 74980
# 87399
# 109095
# 126176
# 154241
# 167935
# 191222
#
# Disc length: 2819 seconds
#
# Revision: 1
# Processed by: cddbd v1.4PL0 Copyright (c) Steve Scherf et al.
# Submitted via: tcd 2.0b
#
DISCID=9c0b010b
DTITLE=Robert Køes»an and Druhá tráva /Pohlednice
DYEAR=1900
DGENRE=
TTITLE0=El Santo Día
TTITLE1=Pohlednice
TTITLE2=Noc
TTITLE3=Zlá Marléna
TTITLE4=Povìz mi
TTITLE5=Taneènice
TTITLE6=Zapomnìní
TTITLE7=Infiela
TTITLE8=A¾ si jednou (sundám kli¹é)
TTITLE9=Tuscon
TTITLE10=Spain
EXTD=
EXTT0=
EXTT1=
EXTT2=
EXTT3=
EXTT4=
EXTT5=
EXTT6=
EXTT7=
EXTT8=
EXTT9=
EXTT10=
PLAYORDER=
